<svg width="980" height="551" xmlns="http://www.w3.org/2000/svg" xmlns:xlink="http://www.w3.org/1999/xlink">
<path fill="#ff595e" d="M 654.28 399.24 Q 654.28 399.24 656.12 399.79 657.97 400.35 659.15 401.63 660.34 402.91 661.70 404.45 663.06 406.00 664.89 408.13 666.71 410.27 668.47 412.25 670.24 414.24 671.91 416.05 673.58 417.86 674.96 419.34 676.33 420.82 677.66 422.27 678.98 423.71 680.25 425.10 681.52 426.48 682.34 427.39 683.15 428.30 683.99 429.29 684.82 430.27 685.58 431.18 686.33 432.10 686.95 432.99 687.58 433.88 688.23 434.87 688.88 435.85 689.48 436.82 690.09 437.78 690.56 438.69 691.03 439.60 691.61 440.78 692.18 441.96 692.71 443.06 693.25 444.17 693.63 445.10 694.02 446.03 694.38 447.00 694.74 447.96 694.72 450.66 694.69 453.37 694.69 453.37 694.69 453.37 694.68 453.37 694.68 453.37 692.84 451.37 691.00 449.37 690.64 448.41 690.28 447.46 689.72 446.20 689.16 444.94 688.60 443.77 688.04 442.60 687.37 441.25 686.70 439.90 686.12 438.98 685.54 438.05 684.39 436.34 683.24 434.64 682.51 433.75 681.78 432.86 680.97 431.91 680.16 430.96 679.37 430.07 678.58 429.19 677.31 427.80 676.04 426.42 674.72 424.98 673.40 423.54 672.02 422.06 670.64 420.58 668.95 418.74 667.25 416.90 665.46 414.88 663.67 412.87 661.86 410.76 660.06 408.64 658.72 407.12 657.37 405.60 656.23 404.31 655.08 403.02 654.67 401.13 654.26 399.25 654.27 399.24 Z" data-drauu_index="0"></path><path fill="#ff595e" d="M 655.68 407.96 Q 655.68 407.96 656.67 409.92 657.67 411.88 657.67 413.81 657.67 415.74 657.67 417.85 657.67 419.95 657.67 421.53 657.67 423.11 657.67 424.55 657.67 425.98 656.71 428.52 655.75 431.05 655.74 431.05 655.74 431.05 655.73 431.05 655.73 431.05 654.70 428.52 653.67 425.98 653.67 424.55 653.67 423.11 653.67 421.53 653.67 419.95 653.67 417.85 653.67 415.74 653.67 413.81 653.67 411.88 654.66 409.92 655.66 407.96 655.67 407.96 Z" data-drauu_index="1"></path><path fill="#ff595e" d="M 658.19 393.54 Q 658.19 393.54 660.54 392.98 662.89 392.42 664.85 393.01 666.81 393.60 668.70 394.31 670.58 395.01 672.58 395.88 674.58 396.75 675.97 397.38 677.35 398.00 678.75 398.65 680.15 399.29 681.64 400.01 683.14 400.72 684.26 401.30 685.37 401.89 686.49 402.49 687.61 403.09 688.63 403.65 689.64 404.21 690.85 404.95 692.05 405.68 693.10 407.46 694.15 409.25 694.15 409.25 694.15 409.26 694.15 409.26 694.15 409.26 692.14 409.17 690.13 409.08 688.92 408.40 687.71 407.71 686.71 407.16 685.72 406.61 684.62 406.02 683.53 405.43 682.47 404.88 681.41 404.33 679.94 403.63 678.47 402.92 677.09 402.29 675.71 401.65 674.35 401.03 672.98 400.42 671.08 399.59 669.17 398.76 667.41 398.09 665.66 397.43 663.89 396.89 662.12 396.35 660.16 394.96 658.19 393.56 658.19 393.55 Z" data-drauu_index="2"></path><path fill="#ff595e" d="M 656.89 394.71 Q 656.89 394.71 657.86 395.70 658.83 396.68 658.74 398.30 658.66 399.92 658.46 400.96 658.27 402.00 657.95 403.74 657.64 405.47 657.44 406.65 657.24 407.82 656.81 409.73 656.38 411.65 655.98 413.47 655.57 415.29 655.34 416.64 655.10 418.00 654.88 418.98 654.65 419.97 654.53 421.08 654.42 422.19 654.33 422.41 654.24 422.62 654.13 422.84 654.02 423.06 653.87 423.24 653.71 423.42 653.52 423.56 653.32 423.70 653.10 423.79 652.87 423.88 652.63 423.92 652.40 423.95 652.16 423.93 651.92 423.90 651.69 423.82 651.46 423.74 651.26 423.61 651.06 423.48 650.90 423.30 650.73 423.12 650.62 422.91 650.50 422.70 650.44 422.47 650.37 422.24 650.37 421.99 650.36 421.75 650.42 421.52 650.47 421.28 650.75 420.07 651.03 418.85 651.29 417.81 651.56 416.76 651.86 415.78 652.17 414.80 652.55 413.65 652.93 412.51 653.28 411.51 653.63 410.52 654.01 409.46 654.39 408.40 654.80 407.37 655.20 406.33 655.70 405.34 656.19 404.35 656.55 403.36 656.91 402.36 657.18 401.29 657.44 400.21 658.93 398.97 660.42 397.72 660.42 397.73 660.42 397.73 660.43 397.74 660.43 397.74 660.70 400.20 660.97 402.66 660.60 403.77 660.23 404.89 659.78 405.95 659.33 407.01 658.87 408.06 658.40 409.11 658.01 410.16 657.62 411.21 657.25 412.28 656.88 413.35 656.51 414.44 656.15 415.52 655.81 416.57 655.47 417.62 655.11 418.97 654.75 420.31 654.50 421.47 654.24 422.62 654.13 422.84 654.02 423.06 653.87 423.24 653.71 423.42 653.52 423.56 653.32 423.70 653.10 423.79 652.87 423.88 652.63 423.92 652.40 423.95 652.16 423.93 651.92 423.90 651.69 423.82 651.46 423.74 651.26 423.61 651.06 423.48 650.90 423.30 650.73 423.12 650.62 422.91 650.50 422.70 650.44 422.47 650.37 422.24 650.37 421.99 650.36 421.75 650.42 421.52 650.47 421.28 650.52 420.89 650.58 420.50 650.76 419.34 650.95 418.19 651.15 417.18 651.34 416.17 651.69 414.45 652.05 412.73 652.27 411.72 652.49 410.72 652.89 408.93 653.30 407.14 653.50 405.96 653.70 404.78 653.88 403.77 654.06 402.76 654.37 401.10 654.69 399.43 654.81 398.06 654.94 396.68 655.90 395.70 656.87 394.71 656.88 394.71 Z" data-drauu_index="3"></path>
</svg>