<svg width="980" height="551" xmlns="http://www.w3.org/2000/svg" xmlns:xlink="http://www.w3.org/1999/xlink">
<path fill="#ff595e" d="M 587.01 311.68 Q 587.01 311.68 587.35 313.51 587.68 315.35 587.03 317.00 586.38 318.65 585.59 320.59 584.79 322.53 584.11 324.22 583.43 325.91 582.73 327.84 582.03 329.76 581.38 332.02 580.73 334.27 580.42 336.04 580.10 337.80 579.95 339.66 579.81 341.53 579.73 343.52 579.66 345.51 579.69 346.85 579.72 348.18 580.35 349.76 580.97 351.34 582.30 353.29 583.63 355.23 585.55 356.80 587.47 358.36 589.49 359.59 591.52 360.82 593.92 361.81 596.31 362.81 599.27 363.76 602.23 364.70 604.90 365.33 607.57 365.96 611.03 366.56 614.48 367.16 618.14 367.60 621.80 368.04 624.13 368.23 626.46 368.41 628.41 368.49 630.36 368.57 632.48 368.39 634.60 368.21 636.06 367.89 637.51 367.57 638.76 366.95 640.01 366.34 641.39 365.37 642.77 364.41 643.58 363.64 644.38 362.87 644.95 361.97 645.52 361.07 646.01 360.02 646.49 358.97 647.02 356.57 647.55 354.16 647.82 352.35 648.08 350.53 648.33 348.44 648.58 346.35 648.79 343.88 648.99 341.41 649.08 339.25 649.16 337.08 649.20 334.51 649.25 331.94 649.18 329.42 649.12 326.91 648.81 325.08 648.50 323.24 647.82 321.01 647.14 318.78 646.27 316.65 645.39 314.51 644.62 313.05 643.84 311.59 642.83 310.17 641.82 308.75 640.73 307.43 639.63 306.12 638.71 305.32 637.80 304.52 636.36 303.68 634.92 302.84 633.18 302.10 631.44 301.36 629.98 300.93 628.52 300.50 626.53 300.18 624.54 299.86 622.20 299.66 619.85 299.46 617.88 299.38 615.91 299.29 613.26 299.25 610.60 299.20 607.42 299.24 604.23 299.29 601.35 299.60 598.47 299.90 595.99 300.47 593.50 301.03 591.81 301.53 590.11 302.04 588.70 302.50 587.29 302.96 585.65 303.57 584.01 304.18 582.45 304.83 580.88 305.49 579.43 306.12 577.99 306.75 576.85 307.20 575.72 307.65 573.88 307.45 572.03 307.24 572.03 307.23 572.03 307.23 572.03 307.23 572.02 307.22 573.10 305.69 574.18 304.17 575.28 303.63 576.39 303.09 577.86 302.44 579.34 301.79 580.98 301.11 582.62 300.43 584.33 299.79 586.05 299.16 587.51 298.68 588.98 298.20 590.80 297.67 592.63 297.13 595.34 296.53 598.05 295.92 601.11 295.61 604.17 295.29 607.42 295.24 610.67 295.20 613.38 295.25 616.08 295.30 618.14 295.39 620.20 295.48 622.69 295.70 625.19 295.91 627.42 296.29 629.66 296.67 631.34 297.18 633.02 297.68 635.00 298.54 636.97 299.41 638.71 300.47 640.45 301.53 641.57 302.54 642.69 303.55 643.90 305.00 645.10 306.45 646.24 308.09 647.38 309.73 648.24 311.36 649.09 313.00 650.03 315.32 650.97 317.63 651.71 320.11 652.45 322.59 652.78 324.70 653.12 326.81 653.18 329.40 653.24 332.00 653.20 334.62 653.16 337.24 653.07 339.49 652.98 341.74 652.77 344.29 652.56 346.83 652.30 348.97 652.04 351.11 651.76 353.01 651.48 354.91 651.16 356.59 650.83 358.27 650.47 359.47 650.11 360.66 649.48 361.98 648.85 363.29 647.99 364.53 647.14 365.77 646.09 366.73 645.04 367.70 643.38 368.83 641.72 369.95 640.05 370.71 638.38 371.47 636.65 371.83 634.93 372.20 632.57 372.38 630.20 372.57 628.17 372.48 626.14 372.40 623.73 372.21 621.33 372.01 617.56 371.56 613.79 371.10 610.22 370.48 606.66 369.85 603.83 369.18 601.01 368.51 597.89 367.50 594.77 366.50 592.10 365.36 589.44 364.23 587.17 362.83 584.89 361.43 582.61 359.46 580.33 357.49 578.78 355.11 577.22 352.73 576.48 350.54 575.74 348.35 575.70 346.85 575.66 345.35 575.74 343.28 575.82 341.21 575.99 339.14 576.16 337.08 576.53 335.12 576.89 333.16 577.58 330.78 578.27 328.40 579.00 326.41 579.72 324.42 580.40 322.71 581.09 321.01 581.88 319.09 582.66 317.18 583.32 315.52 583.97 313.87 585.48 312.77 586.99 311.67 587.00 311.67 Z" data-drauu_index="0"></path><path fill="#ff595e" d="M 452.46 136.74 Q 452.46 136.74 452.46 136.73 452.46 136.73 452.45 136.73 452.45 136.72 452.46 136.73 Z" data-drauu_index="1"></path>
</svg>