<svg width="980" height="551" xmlns="http://www.w3.org/2000/svg" xmlns:xlink="http://www.w3.org/1999/xlink">
<path fill="#ff595e" d="M 320.75 373.54 Q 320.75 373.54 323.12 372.41 325.48 371.28 334.62 371.22 343.77 371.16 357.54 371.41 371.31 371.66 382.93 372.96 394.56 374.25 401.62 376.60 408.69 378.96 412.22 381.71 415.75 384.45 415.97 387.71 416.18 390.96 411.90 393.69 407.63 396.41 397.92 399.06 388.20 401.70 374.56 404.21 360.91 406.71 348.17 408.60 335.44 410.49 327.22 411.50 319.00 412.51 314.41 412.89 309.83 413.27 307.29 413.08 304.75 412.89 303.07 412.00 301.40 411.11 300.42 409.75 299.44 408.39 299.00 407.00 298.56 405.61 298.35 404.37 298.15 403.14 297.90 402.06 297.64 400.98 297.14 399.92 296.65 398.87 295.94 397.60 295.24 396.34 294.63 394.93 294.02 393.53 293.68 392.17 293.35 390.81 293.30 389.53 293.24 388.25 293.53 387.06 293.82 385.87 294.44 384.86 295.05 383.85 295.92 382.99 296.79 382.12 297.83 381.35 298.87 380.57 300.01 379.93 301.15 379.28 302.46 378.86 303.78 378.44 305.22 378.27 306.67 378.09 308.21 378.02 309.75 377.96 311.38 378.02 313.01 378.09 314.50 378.28 315.98 378.48 318.35 380.02 320.73 381.56 320.73 381.57 320.73 381.57 320.73 381.58 320.72 381.58 318.09 382.01 315.45 382.44 314.15 382.26 312.85 382.08 311.38 382.02 309.91 381.96 308.51 382.01 307.11 382.06 305.10 382.42 303.08 382.78 302.16 383.29 301.23 383.80 300.39 384.41 299.55 385.01 298.60 386.01 297.65 387.01 297.45 388.46 297.25 389.92 297.47 390.94 297.69 391.95 298.22 393.18 298.74 394.40 299.52 395.81 300.29 397.22 300.91 398.64 301.53 400.05 301.82 401.28 302.10 402.51 302.25 403.51 302.40 404.51 302.99 406.15 303.57 407.80 304.40 408.38 305.23 408.95 307.37 409.12 309.50 409.28 314.01 408.91 318.51 408.54 326.68 407.53 334.85 406.53 347.52 404.65 360.19 402.78 373.68 400.31 387.17 397.84 396.42 395.38 405.67 392.93 409.54 390.99 413.40 389.05 413.13 387.92 412.85 386.79 410.10 384.76 407.35 382.72 400.72 380.47 394.10 378.22 382.66 376.94 371.23 375.66 357.51 375.41 343.79 375.16 334.75 375.21 325.71 375.27 323.23 374.42 320.75 373.56 320.75 373.55 Z" data-drauu_index="0"></path><path fill="#ff595e" d="M 410.94 369.93 Q 410.94 369.93 410.93 369.93 410.93 369.93 410.93 369.94 410.92 369.94 410.93 369.93 Z" data-drauu_index="1"></path><path fill="#ff595e" d="M 304.32 306.57 Q 304.32 306.57 311.29 305.58 318.27 304.58 329.64 304.58 341.00 304.58 353.24 304.58 365.48 304.58 375.55 304.62 385.62 304.67 392.09 305.23 398.55 305.78 402.20 307.15 405.84 308.51 407.78 310.49 409.71 312.46 410.58 314.75 411.44 317.05 411.58 319.61 411.71 322.17 411.12 325.05 410.52 327.94 409.33 330.86 408.13 333.78 406.47 336.51 404.81 339.24 402.90 341.60 400.98 343.96 399.15 345.78 397.32 347.60 395.63 348.79 393.94 349.97 392.24 350.61 390.54 351.25 388.43 351.52 386.32 351.79 383.41 351.89 380.50 351.99 376.83 352.03 373.15 352.07 369.24 352.09 365.32 352.11 361.53 352.01 357.73 351.91 354.29 351.56 350.84 351.21 347.76 350.49 344.67 349.76 341.92 348.63 339.17 347.49 336.82 345.91 334.47 344.33 332.52 342.29 330.56 340.25 329.03 338.03 327.51 335.82 326.42 333.73 325.33 331.64 324.54 329.76 323.75 327.87 323.11 326.22 322.46 324.58 321.89 323.11 321.33 321.64 320.85 320.11 320.37 318.57 319.97 316.85 319.57 315.12 319.26 313.39 318.95 311.66 318.78 310.02 318.60 308.38 318.53 306.84 318.45 305.31 318.47 304.02 318.50 302.74 319.50 301.18 320.51 299.61 320.51 299.61 320.52 299.61 320.52 299.62 320.53 299.62 321.40 301.13 322.28 302.65 322.36 303.88 322.45 305.12 322.51 306.54 322.58 307.96 322.74 309.46 322.89 310.97 323.18 312.60 323.46 314.22 323.83 315.81 324.19 317.39 324.62 318.80 325.06 320.20 325.62 321.66 326.18 323.11 326.82 324.73 327.45 326.34 328.16 328.07 328.88 329.80 329.85 331.69 330.82 333.57 332.14 335.54 333.47 337.51 335.11 339.28 336.74 341.04 338.74 342.43 340.73 343.81 343.16 344.84 345.60 345.87 348.43 346.55 351.26 347.23 354.55 347.57 357.84 347.91 361.57 348.01 365.31 348.11 369.21 348.09 373.11 348.07 376.74 348.03 380.37 347.99 383.11 347.91 385.86 347.82 387.54 347.65 389.22 347.47 390.46 347.06 391.70 346.66 393.11 345.71 394.51 344.76 396.20 343.09 397.88 341.43 399.65 339.28 401.41 337.14 402.92 334.69 404.44 332.25 405.53 329.66 406.61 327.08 407.17 324.68 407.72 322.29 407.68 320.29 407.65 318.30 407.17 316.67 406.70 315.05 405.48 313.59 404.26 312.14 401.21 310.95 398.16 309.76 391.88 309.21 385.60 308.67 375.54 308.62 365.48 308.58 353.24 308.58 341.00 308.58 329.64 308.58 318.27 308.58 311.29 307.59 304.32 306.59 304.32 306.58 Z" data-drauu_index="2"></path>
</svg>