<svg width="980" height="551" xmlns="http://www.w3.org/2000/svg" xmlns:xlink="http://www.w3.org/1999/xlink">
<path fill="#ff595e" d="M 862.79 268.00 Q 862.79 268.00 862.79 268.00 862.78 268.01 862.78 268.01 862.78 268.01 862.78 268.01 Z" data-drauu_index="1"></path><path fill="#ff595e" d="M 459.77 308.46 Q 459.77 308.46 459.77 308.46 459.76 308.47 459.76 308.47 459.76 308.47 459.76 308.47 Z" data-drauu_index="2"></path><path fill="#ff595e" d="M 486.36 302.33 Q 486.36 302.33 486.36 302.33 486.35 302.34 486.35 302.34 486.35 302.34 486.35 302.34 Z" data-drauu_index="3"></path><path fill="#ff595e" d="M 486.10 302.33 Q 486.10 302.33 486.09 302.33 486.09 302.34 486.09 302.34 486.08 302.34 486.09 302.34 Z" data-drauu_index="4"></path><path fill="#ff595e" d="M 525.43 260.41 Q 525.43 260.41 525.42 260.41 525.42 260.42 525.41 260.42 525.41 260.42 525.42 260.42 Z" data-drauu_index="5"></path><path fill="#ff595e" d="M 389.36 296.15 Q 389.36 296.15 389.36 296.15 389.36 296.16 389.35 296.16 389.35 296.16 389.36 296.16 Z" data-drauu_index="6"></path><path fill="#ff595e" d="M 194.68 373.66 Q 194.68 373.66 195.51 375.08 196.33 376.50 196.23 377.51 196.14 378.51 196.07 379.52 195.99 380.53 195.93 381.62 195.86 382.71 195.76 383.93 195.66 385.15 195.51 386.60 195.35 388.05 195.12 389.66 194.89 391.27 194.66 392.88 194.44 394.49 194.26 396.04 194.08 397.59 193.92 399.00 193.76 400.41 193.66 401.61 193.55 402.82 193.47 403.84 193.40 404.87 193.33 405.95 193.27 407.04 193.23 408.13 193.20 409.21 193.19 410.53 193.18 411.85 193.22 413.19 193.25 414.53 193.61 415.56 193.97 416.58 194.45 417.56 194.94 418.54 195.78 419.56 196.61 420.57 197.84 421.53 199.07 422.49 200.75 423.29 202.44 424.09 203.48 424.35 204.53 424.61 205.98 424.77 207.42 424.93 209.35 425.00 211.28 425.08 213.59 425.11 215.90 425.14 218.17 425.08 220.44 425.01 222.37 424.73 224.31 424.46 225.99 423.98 227.68 423.51 229.03 422.91 230.39 422.30 231.42 421.61 232.45 420.91 233.22 420.17 233.99 419.43 234.93 417.98 235.87 416.54 236.41 415.18 236.95 413.82 237.19 412.74 237.43 411.66 237.79 409.98 238.14 408.31 238.25 407.26 238.35 406.22 238.40 405.11 238.44 404.00 238.47 402.41 238.50 400.83 238.51 399.74 238.51 398.65 238.25 397.14 238.00 395.64 237.56 394.40 237.13 393.16 236.25 392.29 235.37 391.42 233.90 390.69 232.42 389.95 231.10 389.53 229.78 389.11 228.05 388.71 226.31 388.30 224.39 387.89 222.46 387.48 220.54 387.07 218.62 386.66 216.67 386.26 214.72 385.86 212.61 385.49 210.50 385.12 208.63 384.82 206.76 384.52 205.02 384.22 203.28 383.92 201.57 383.72 199.86 383.51 198.69 383.34 197.52 383.16 194.64 381.73 191.76 380.30 191.76 380.29 191.76 380.29 191.76 380.28 191.76 380.28 194.94 379.74 198.11 379.21 199.23 379.37 200.34 379.54 202.15 379.76 203.96 379.98 205.67 380.27 207.39 380.57 209.29 380.87 211.19 381.18 213.36 381.56 215.54 381.94 217.50 382.34 219.46 382.75 221.38 383.16 223.30 383.57 225.26 383.99 227.23 384.41 229.12 384.86 231.01 385.31 232.54 385.81 234.06 386.30 235.20 386.83 236.34 387.35 237.70 388.33 239.07 389.31 239.94 390.46 240.81 391.60 241.35 393.17 241.89 394.74 242.20 396.70 242.51 398.66 242.51 399.77 242.50 400.87 242.47 402.52 242.44 404.17 242.39 405.41 242.33 406.64 242.20 407.88 242.06 409.12 241.70 410.83 241.33 412.55 241.02 413.86 240.71 415.17 240.06 416.79 239.40 418.41 238.74 419.61 238.07 420.81 237.40 421.58 236.72 422.35 235.69 423.29 234.66 424.24 233.33 425.10 232.00 425.96 230.37 426.67 228.74 427.37 226.81 427.89 224.87 428.42 222.71 428.71 220.56 429.01 218.20 429.07 215.85 429.14 213.48 429.11 211.12 429.07 209.04 428.99 206.95 428.90 205.25 428.69 203.54 428.48 202.23 428.13 200.92 427.79 199.82 427.33 198.72 426.86 197.73 426.31 196.75 425.75 195.88 425.12 195.01 424.49 193.78 423.25 192.56 422.02 191.98 421.20 191.39 420.39 190.83 419.24 190.26 418.10 189.76 416.43 189.25 414.76 189.22 413.30 189.18 411.83 189.19 410.47 189.20 409.12 189.24 407.96 189.28 406.81 189.34 405.69 189.41 404.57 189.49 403.52 189.57 402.46 189.68 401.21 189.79 399.96 189.95 398.55 190.11 397.13 190.29 395.53 190.48 393.94 190.70 392.32 190.93 390.70 191.15 389.16 191.37 387.62 191.52 386.22 191.68 384.82 191.77 383.64 191.87 382.47 191.94 381.35 192.00 380.24 192.08 379.18 192.16 378.13 192.26 377.06 192.36 376.00 193.51 374.83 194.66 373.65 194.67 373.65 Z" data-drauu_index="7"></path><path fill="#ff595e" d="M 524.05 413.72 Q 524.05 413.72 524.05 413.72 524.05 413.73 524.04 413.73 524.04 413.73 524.05 413.73 Z" data-drauu_index="8"></path><path fill="#ff595e" d="M 289.50 391.08 Q 289.50 391.08 289.50 391.08 289.49 391.09 289.49 391.09 289.49 391.09 289.49 391.09 Z" data-drauu_index="9"></path>
</svg>