<svg width="980" height="551" xmlns="http://www.w3.org/2000/svg" xmlns:xlink="http://www.w3.org/1999/xlink">
<path fill="#ff595e" d="M 94.17 53.72 Q 94.17 53.72 92.25 54.71 90.32 55.71 88.35 55.71 86.38 55.71 84.58 55.71 82.79 55.71 81.17 55.71 79.55 55.71 78.12 55.71 76.68 55.71 75.59 55.69 74.51 55.68 72.56 54.70 70.61 53.72 70.61 53.71 70.61 53.71 70.61 53.70 70.61 53.70 72.56 52.71 74.51 51.73 75.59 51.72 76.68 51.71 78.12 51.71 79.55 51.71 81.17 51.71 82.79 51.71 84.58 51.71 86.38 51.71 88.35 51.71 90.32 51.71 92.25 52.70 94.17 53.70 94.17 53.71 Z" data-drauu_index="17"></path><path fill="#ff595e" d="M 119.10 57.23 Q 119.10 57.23 119.09 57.23 119.09 57.23 119.08 57.23 119.08 57.23 119.09 57.23 Z" data-drauu_index="18"></path><path fill="#ff595e" d="M 105.12 57.25 Q 105.12 57.25 106.90 56.26 108.69 55.27 111.36 55.27 114.03 55.26 117.36 55.26 120.68 55.26 124.88 55.33 129.07 55.39 133.89 55.73 138.72 56.07 143.39 56.60 148.06 57.13 151.90 57.64 155.74 58.14 158.81 58.60 161.87 59.07 164.25 59.46 166.63 59.85 168.29 60.18 169.94 60.51 171.39 61.75 172.85 62.99 172.85 62.99 172.85 63.00 172.84 63.00 172.84 63.01 171.06 63.65 169.28 64.29 167.63 64.05 165.98 63.80 163.62 63.41 161.27 63.02 158.25 62.56 155.23 62.11 151.41 61.61 147.60 61.11 143.02 60.58 138.44 60.06 133.72 59.73 129.01 59.39 124.84 59.33 120.68 59.26 117.36 59.26 114.03 59.26 111.36 59.26 108.69 59.25 106.90 58.26 105.12 57.27 105.12 57.26 Z" data-drauu_index="19"></path><path fill="#ff595e" d="M 174.30 63.72 Q 174.30 63.72 174.30 63.72 174.30 63.73 174.29 63.73 174.29 63.73 174.30 63.73 Z" data-drauu_index="20"></path><path fill="#ff595e" d="M 173.71 58.29 Q 173.71 58.29 173.72 58.29 173.72 58.29 173.73 58.29 173.73 58.29 173.72 58.29 Z" data-drauu_index="21"></path><path fill="#ff595e" d="M 356.20 70.03 Q 356.20 70.03 354.81 73.47 353.42 76.91 350.72 80.25 348.03 83.58 344.59 87.33 341.15 91.07 337.50 94.56 333.86 98.06 330.33 101.04 326.80 104.02 323.28 106.38 319.76 108.74 316.19 110.28 312.62 111.82 309.12 112.69 305.61 113.55 302.42 113.78 299.23 114.02 296.13 113.23 293.04 112.44 290.42 110.33 287.80 108.22 285.68 104.31 283.55 100.40 282.09 95.52 280.62 90.64 279.96 85.86 279.30 81.08 279.59 75.98 279.88 70.89 281.83 65.44 283.78 59.98 287.83 54.96 291.88 49.94 299.81 45.19 307.75 40.44 318.34 36.54 328.93 32.64 342.18 30.39 355.43 28.14 370.37 27.02 385.30 25.90 397.56 25.87 409.82 25.84 419.98 27.10 430.15 28.37 438.33 30.36 446.51 32.35 452.36 34.55 458.22 36.76 462.94 39.41 467.67 42.06 470.93 44.71 474.20 47.36 475.96 49.95 477.72 52.54 478.25 55.53 478.77 58.51 477.64 61.86 476.51 65.20 473.57 69.03 470.63 72.87 466.15 77.14 461.67 81.41 456.59 85.27 451.51 89.13 445.95 92.41 440.39 95.69 434.95 98.27 429.52 100.85 425.10 102.50 420.68 104.14 417.06 105.26 413.44 106.39 410.79 107.08 408.15 107.77 406.45 108.09 404.74 108.41 402.73 107.53 400.72 106.65 400.73 106.65 400.73 106.65 400.73 106.65 400.74 106.64 402.36 105.59 403.99 104.54 405.56 104.22 407.14 103.90 409.70 103.23 412.25 102.57 415.77 101.48 419.28 100.39 423.54 98.81 427.81 97.23 433.08 94.74 438.36 92.24 443.73 89.09 449.10 85.94 454.01 82.22 458.92 78.51 463.20 74.45 467.49 70.40 470.14 67.08 472.79 63.76 473.81 61.31 474.84 58.86 474.59 56.73 474.33 54.60 472.98 52.51 471.64 50.42 468.66 47.98 465.69 45.54 461.25 43.02 456.80 40.50 451.18 38.37 445.55 36.24 437.60 34.29 429.65 32.33 419.74 31.09 409.82 29.84 397.71 29.86 385.60 29.88 370.85 30.98 356.09 32.09 343.19 34.24 330.29 36.40 320.03 40.15 309.77 43.90 302.34 48.21 294.91 52.53 291.20 56.97 287.50 61.42 285.68 66.30 283.86 71.17 283.56 75.87 283.26 80.56 283.86 85.03 284.46 89.51 285.78 94.03 287.10 98.55 288.78 101.90 290.46 105.25 292.34 106.95 294.22 108.66 296.62 109.35 299.02 110.04 301.85 109.85 304.68 109.66 307.87 108.90 311.06 108.14 314.30 106.77 317.55 105.41 320.89 103.18 324.23 100.96 327.66 98.06 331.09 95.17 334.65 91.77 338.21 88.36 341.56 84.72 344.92 81.07 347.58 77.77 350.25 74.47 353.22 72.24 356.19 70.01 356.20 70.02 Z" data-drauu_index="22"></path><path fill="#ff595e" d="M 363.42 99.11 Q 363.42 99.11 362.94 101.70 362.47 104.29 360.52 106.44 358.57 108.58 355.40 110.72 352.24 112.85 348.38 114.52 344.52 116.18 340.75 117.05 336.99 117.91 332.79 118.34 328.58 118.76 323.59 118.60 318.59 118.45 313.94 117.46 309.29 116.47 304.96 113.91 300.64 111.35 296.79 107.17 292.94 103.00 290.44 98.24 287.93 93.47 286.44 88.37 284.95 83.27 284.17 78.76 283.40 74.25 283.07 70.81 282.74 67.38 282.82 64.42 282.90 61.45 284.37 58.74 285.85 56.02 289.43 53.98 293.02 51.93 300.15 50.63 307.28 49.33 316.81 48.62 326.34 47.91 336.45 47.63 346.57 47.34 356.21 47.59 365.86 47.83 373.82 48.70 381.78 49.56 388.03 50.70 394.28 51.84 398.60 52.96 402.92 54.09 405.88 55.10 408.83 56.11 410.33 57.99 411.82 59.87 411.82 59.88 411.82 59.88 411.82 59.89 411.81 59.89 409.68 59.88 407.54 59.87 404.72 58.92 401.91 57.96 397.73 56.87 393.56 55.77 387.45 54.66 381.34 53.54 373.55 52.69 365.76 51.83 356.22 51.59 346.68 51.34 336.66 51.62 326.63 51.90 317.30 52.58 307.97 53.27 301.40 54.38 294.84 55.49 291.95 56.87 289.07 58.26 287.95 60.02 286.83 61.78 286.78 64.40 286.72 67.01 287.03 70.29 287.34 73.57 288.07 77.87 288.79 82.17 290.14 86.91 291.49 91.65 293.70 95.99 295.92 100.34 299.33 104.15 302.74 107.96 306.47 110.27 310.20 112.59 314.47 113.52 318.74 114.45 323.46 114.62 328.19 114.78 332.15 114.39 336.11 114.01 339.54 113.25 342.96 112.50 346.50 111.01 350.04 109.52 352.84 107.69 355.64 105.86 357.37 104.00 359.10 102.14 361.25 100.62 363.40 99.10 363.41 99.10 Z" data-drauu_index="23"></path>
</svg>