<svg width="120" height="120" viewBox="0 0 120 120" fill="none" xmlns="http://www.w3.org/2000/svg">
<path d="M88.8319 70.001L54.0039 35.173C53.242 34.4458 52.2292 34.04 51.1759 34.04C50.1226 34.04 49.1098 34.4458 48.3479 35.173L43.1759 40.345C42.427 41.0956 42.0064 42.1126 42.0064 43.173C42.0064 44.2333 42.427 45.2503 43.1759 46.001L78.0019 80.829C78.7525 81.5779 79.7696 81.9985 80.8299 81.9985C81.8902 81.9985 82.9073 81.5779 83.6579 80.829L88.8319 75.657C89.5818 74.9069 90.0031 73.8896 90.0031 72.829C90.0031 71.7683 89.5818 70.7511 88.8319 70.001ZM46.0039 43.173L51.1759 38.001L61.1759 48.001L56.0019 53.175L46.0019 43.175L46.0039 43.173ZM80.8299 78.001L58.8299 56.003L64.0039 50.829L86.0039 72.829L80.8299 78.001ZM34.0039 54.001L38.0039 50.001L42.0039 54.001L38.0039 58.001L34.0039 54.001ZM58.0039 30.001L62.0039 26.001L66.0039 30.001L62.0039 34.001L58.0039 30.001ZM34.0039 30.001L38.0039 26.001L42.0039 30.001L38.0039 34.001L34.0039 30.001Z" fill="url(#paint0_linear_934_14)"/>
<path d="M62.0231 7.50001C54.9602 7.22738 47.9149 8.38375 41.3098 10.8998C34.7046 13.4158 28.6755 17.2397 23.5839 22.1422C18.4923 27.0447 14.443 32.9249 11.6789 39.4301C8.91485 45.9354 7.4928 52.9319 7.49806 60C7.49788 62.78 8.13892 65.5225 9.37136 68.0144C10.6038 70.5062 12.3944 72.6802 14.6039 74.3673C16.8134 76.0543 19.3823 77.209 22.1108 77.7415C24.8393 78.274 27.6538 78.17 30.3356 77.4375L34.5356 76.275C36.2064 75.8189 37.9599 75.7548 39.6595 76.0875C41.3592 76.4203 42.9591 77.141 44.3345 78.1934C45.71 79.2459 46.8239 80.6017 47.5894 82.1552C48.3549 83.7088 48.7515 85.4181 48.7481 87.15V101.25C48.7481 104.234 49.9333 107.095 52.0431 109.205C54.1529 111.315 57.0144 112.5 59.9981 112.5C67.0662 112.505 74.0627 111.083 80.5679 108.319C87.0732 105.555 92.9534 101.506 97.8559 96.4142C102.758 91.3226 106.582 85.2935 109.098 78.6883C111.614 72.0832 112.771 65.0379 112.498 57.975C111.954 44.7626 106.461 32.2377 97.1109 22.8872C87.7603 13.5367 75.2355 8.04411 62.0231 7.50001ZM92.4356 91.1625C88.2484 95.5464 83.2139 99.0336 77.6378 101.412C72.0617 103.791 66.0603 105.012 59.9981 105C59.0035 105 58.0497 104.605 57.3464 103.902C56.6431 103.198 56.2481 102.245 56.2481 101.25V87.15C56.2481 82.1772 54.2726 77.4081 50.7563 73.8918C47.24 70.3755 42.4709 68.4 37.4981 68.4C35.813 68.403 34.1358 68.63 32.5106 69.075L28.3106 70.2375C26.7419 70.6579 25.0974 70.7114 23.5047 70.3937C21.912 70.0761 20.4139 69.3959 19.1265 68.4059C17.8391 67.4158 16.797 66.1426 16.0811 64.6849C15.3651 63.2271 14.9945 61.6241 14.9981 60C14.9934 53.9393 16.2131 47.94 18.584 42.3622C20.9549 36.7844 24.428 31.743 28.7952 27.5405C33.1623 23.338 38.3333 20.0609 43.9981 17.906C49.6628 15.7511 55.7044 14.7626 61.7606 15C73.0375 15.5873 83.6972 20.3313 91.682 28.3161C99.6668 36.3009 104.411 46.9606 104.998 58.2375C105.256 64.2974 104.275 70.3462 102.115 76.0139C99.9551 81.6816 96.6614 86.8491 92.4356 91.2V91.1625Z" fill="url(#paint1_linear_934_14)"/>
<path d="M83.5 53C87.6421 53 91 49.6421 91 45.5C91 41.3579 87.6421 38 83.5 38C79.3579 38 76 41.3579 76 45.5C76 49.6421 79.3579 53 83.5 53Z" fill="#B268DF" fill-opacity="0.78"/>
<path d="M69.5 95C73.6421 95 77 91.6421 77 87.5C77 83.3579 73.6421 80 69.5 80C65.3579 80 62 83.3579 62 87.5C62 91.6421 65.3579 95 69.5 95Z" fill="#B95050"/>
<defs>
<linearGradient id="paint0_linear_934_14" x1="35" y1="27.5" x2="87.5" y2="77.5" gradientUnits="userSpaceOnUse">
<stop stop-color="#AF6BD9"/>
<stop offset="1" stop-color="#A5333A"/>
</linearGradient>
<linearGradient id="paint1_linear_934_14" x1="60.0176" y1="7.46094" x2="60.0176" y2="112.5" gradientUnits="userSpaceOnUse">
<stop stop-color="#AF6BD9"/>
<stop offset="1" stop-color="#A5333A"/>
</linearGradient>
</defs>
</svg>
